<svg width="56" height="63" viewBox="0 0 56 63" fill="none" xmlns="http://www.w3.org/2000/svg">
<g opacity="0.75">
<path d="M24.0622 0.95752C19.8062 0.95752 16.3239 4.39945 16.3239 8.60626H8.5856C4.32952 8.60626 0.84729 12.0482 0.84729 16.255H55.0155C55.0155 12.0482 51.5333 8.60626 47.2772 8.60626H39.5389C39.5389 4.39945 36.0566 0.95752 31.8006 0.95752H24.0622ZM8.5856 23.9038V60.6943C8.5856 61.5356 9.20466 62.1475 10.0559 62.1475H45.8843C46.7355 62.1475 47.3546 61.5356 47.3546 60.6943V23.9038H39.6163V50.6744C39.6163 52.8161 37.9138 54.4988 35.7471 54.4988C33.5804 54.4988 31.878 52.8161 31.878 50.6744V23.9038H24.1396V50.6744C24.1396 52.8161 22.4372 54.4988 20.2705 54.4988C18.1037 54.4988 16.4013 52.8161 16.4013 50.6744V23.9038H8.5856Z" fill="#93C09E"/>
<path d="M24.0622 0.95752C19.8062 0.95752 16.3239 4.39945 16.3239 8.60626H8.5856C4.32952 8.60626 0.84729 12.0482 0.84729 16.255H55.0155C55.0155 12.0482 51.5333 8.60626 47.2772 8.60626H39.5389C39.5389 4.39945 36.0566 0.95752 31.8006 0.95752H24.0622ZM8.5856 23.9038V60.6943C8.5856 61.5356 9.20466 62.1475 10.0559 62.1475H45.8843C46.7355 62.1475 47.3546 61.5356 47.3546 60.6943V23.9038H39.6163V50.6744C39.6163 52.8161 37.9138 54.4988 35.7471 54.4988C33.5804 54.4988 31.878 52.8161 31.878 50.6744V23.9038H24.1396V50.6744C24.1396 52.8161 22.4372 54.4988 20.2705 54.4988C18.1037 54.4988 16.4013 52.8161 16.4013 50.6744V23.9038H8.5856Z" fill="#93C09E"/>
</g>
</svg>
