<svg width="60" height="75" viewBox="0 0 60 75" fill="none" xmlns="http://www.w3.org/2000/svg">
<g opacity="0.75">
<g opacity="0.5">
<path d="M53.2267 58.3921C50.5209 49.8554 48.8636 43.5349 48.2871 37.0234H45.3966H44.2405H38.793H37.6384H34.7469C34.1705 43.5349 32.5126 49.8554 29.8068 58.3921C28.2968 63.1582 26.5941 67.4801 24.8043 71.6811H32.1469H32.416H40.7718H42.2623H50.6177H50.8874H58.2294C56.4392 67.4801 54.7374 63.1582 53.2267 58.3921Z" fill="#6AA285"/>
<path d="M49.6049 36.7475C49.6049 37.2474 49.1997 37.6528 48.7 37.6528H34.336C33.8363 37.6528 33.4311 37.2474 33.4311 36.7475V36.6675C33.4311 36.1676 33.8363 35.7622 34.336 35.7622H48.7C49.1997 35.7622 49.6049 36.1676 49.6049 36.6675V36.7475Z" fill="#93C09E"/>
<path d="M52.1337 12.9501C53.4749 13.5415 55.0406 12.9339 55.6318 11.5927C56.2231 10.2522 55.6148 8.68633 54.2747 8.09505C52.934 7.50356 51.3671 8.11101 50.7756 9.45195C50.1851 10.7927 50.793 12.3592 52.1337 12.9501Z" fill="#BBE483"/>
<path d="M46.6953 15.5929C48.3175 16.3081 50.214 15.5725 50.9297 13.9501C51.6449 12.3273 50.9091 10.4321 49.2869 9.71687C47.6634 9.00103 45.7682 9.7362 45.0528 11.3586C44.3376 12.9812 45.0721 14.8769 46.6953 15.5929Z" fill="#BBE483"/>
<path d="M57.4953 13.3634C58.7229 13.3634 59.718 12.3682 59.718 11.1407C59.718 9.91311 58.7229 8.91797 57.4953 8.91797C56.2677 8.91797 55.2726 9.91311 55.2726 11.1407C55.2726 12.3682 56.2677 13.3634 57.4953 13.3634Z" fill="#BBE483"/>
<path d="M52.6585 15.8355C53.9992 16.4264 55.5653 15.8193 56.1562 14.4788C56.7475 13.1377 56.1406 11.5713 54.7997 10.9799C53.4586 10.389 51.8925 10.9969 51.3008 12.338C50.7095 13.6785 51.3176 15.244 52.6585 15.8355Z" fill="#BBE483"/>
<path d="M43.2968 22.819C45.9979 22.819 48.1875 20.6294 48.1875 17.9283C48.1875 15.2272 45.9979 13.0376 43.2968 13.0376C40.5957 13.0376 38.4061 15.2272 38.4061 17.9283C38.4061 20.6294 40.5957 22.819 43.2968 22.819Z" fill="#BBE483"/>
<path d="M46.4684 24.565C48.5653 25.4899 51.0155 24.539 51.9399 22.4427C52.8646 20.345 51.9139 17.8959 49.8168 16.9708C47.7203 16.0466 45.2703 16.9962 44.3453 19.0935C43.4215 21.1902 44.3718 23.6402 46.4684 24.565Z" fill="#BBE483"/>
<path d="M38.8355 32.062C42.2431 33.5647 46.2241 32.0211 47.7266 28.6141C49.229 25.2059 47.6839 21.2251 44.2763 19.7229C40.8688 18.2202 36.8888 19.7647 35.3857 23.1727C33.8835 26.5794 35.4279 30.56 38.8355 32.062Z" fill="#BBE483"/>
<path d="M49.5816 19.0031C51.203 19.7185 53.0997 18.9829 53.8155 17.3605C54.5303 15.7377 53.795 13.8425 52.1728 13.1266C50.5493 12.4114 48.6532 13.1466 47.9382 14.7692C47.2222 16.3918 47.9576 18.2875 49.5816 19.0031Z" fill="#BBE483"/>
<path d="M59.8969 70.4204H21.6685V74.2012H59.8969V70.4204Z" fill="#93C09E"/>
</g>
<path d="M35.417 56.6275C32.4092 47.138 30.5669 40.1122 29.926 32.874H26.713H25.4279H19.3724H18.0889H14.8747C14.234 40.1122 12.3911 47.138 9.38326 56.6275C7.70472 61.9255 5.81206 66.7298 3.82251 71.3996H11.9846H12.2837H21.572H23.2289H32.5168H32.8166H40.9779C38.9879 66.7298 37.0962 61.9255 35.417 56.6275Z" fill="#6AA285"/>
<path d="M19.9323 49.8447L15.5486 50.2505C15.7793 52.2177 16.8323 53.9322 18.3558 55.0422L20.9973 51.3995C20.4665 51.0409 20.0806 50.4885 19.9323 49.8447Z" fill="white"/>
<path d="M22.4395 46.6956C22.8101 46.6956 23.1612 46.7753 23.4804 46.9167L25.2435 43.0833C24.3854 42.7037 23.4372 42.4912 22.4395 42.4912C21.4385 42.4912 20.4897 42.7044 19.6313 43.0847L21.3512 46.9394C21.6823 46.7848 22.0494 46.6956 22.4395 46.6956Z" fill="white"/>
<path d="M23.928 51.364L26.5293 55.037C28.0505 53.926 29.101 52.2111 29.331 50.2444L24.9598 49.7896C24.8265 50.4368 24.4485 50.9944 23.928 51.364Z" fill="white"/>
<path d="M22.4392 50.7208C23.2306 50.7208 23.8721 50.0793 23.8721 49.2879C23.8721 48.4965 23.2306 47.855 22.4392 47.855C21.6478 47.855 21.0063 48.4965 21.0063 49.2879C21.0063 50.0793 21.6478 50.7208 22.4392 50.7208Z" fill="white"/>
<path d="M22.4008 58.2661C17.6237 58.2661 13.7375 54.3795 13.7375 49.6028C13.7375 44.8261 17.6239 40.9395 22.4008 40.9395C27.1773 40.9395 31.0637 44.8261 31.0637 49.6028C31.0637 54.3795 27.1773 58.2661 22.4008 58.2661ZM22.4008 41.9745C18.1941 41.9745 14.7728 45.3965 14.7728 49.603C14.7728 53.8091 18.1941 57.2316 22.4008 57.2316C26.6085 57.2316 30.0298 53.8091 30.0298 49.603C30.0298 45.3965 26.6088 41.9745 22.4008 41.9745Z" fill="white"/>
<path d="M31.3909 32.568C31.3909 33.1237 30.9405 33.5743 30.385 33.5743H14.4179C13.8625 33.5743 13.412 33.1237 13.412 32.568V32.479C13.412 31.9233 13.8625 31.4727 14.4179 31.4727H30.385C30.9405 31.4727 31.3909 31.9233 31.3909 32.479V32.568Z" fill="#93C09E"/>
<path d="M34.2017 6.11384C35.6925 6.77134 37.4329 6.09586 38.0902 4.60504C38.7474 3.11492 38.0713 1.37427 36.5816 0.716997C35.0913 0.0594939 33.3494 0.734741 32.6919 2.22533C32.0356 3.71568 32.7113 5.45704 34.2017 6.11384Z" fill="#BBE483"/>
<path d="M28.1564 9.05223C29.9596 9.84726 32.0678 9.02958 32.8633 7.22612C33.6583 5.42219 32.8404 3.31543 31.0372 2.5204C29.2325 1.72467 27.1258 2.54188 26.3305 4.34534C25.5355 6.14904 26.352 8.25627 28.1564 9.05223Z" fill="#BBE483"/>
<path d="M40.1616 6.57387C41.5262 6.57387 42.6324 5.46766 42.6324 4.1031C42.6324 2.73853 41.5262 1.63232 40.1616 1.63232C38.7971 1.63232 37.6909 2.73853 37.6909 4.1031C37.6909 5.46766 38.7971 6.57387 40.1616 6.57387Z" fill="#BBE483"/>
<path d="M34.7848 9.32205C36.2751 9.97885 38.016 9.30407 38.6728 7.81395C39.3301 6.32313 38.6555 4.58201 37.165 3.92451C35.6741 3.2677 33.9333 3.94342 33.2755 5.43424C32.6182 6.92436 33.2942 8.66455 34.7848 9.32205Z" fill="#BBE483"/>
<path d="M24.3787 17.0845C27.3812 17.0845 29.8152 14.6505 29.8152 11.648C29.8152 8.64545 27.3812 6.21143 24.3787 6.21143C21.3762 6.21143 18.9421 8.64545 18.9421 11.648C18.9421 14.6505 21.3762 17.0845 24.3787 17.0845Z" fill="#BBE483"/>
<path d="M27.9041 19.0253C30.235 20.0533 32.9586 18.9963 33.9862 16.6661C35.014 14.3343 33.9572 11.6118 31.6261 10.5835C29.2956 9.55618 26.5722 10.6118 25.544 12.9432C24.5171 15.2738 25.5734 17.9972 27.9041 19.0253Z" fill="#BBE483"/>
<path d="M19.4196 27.3593C23.2074 29.0296 27.6327 27.3137 29.3029 23.5266C30.973 19.738 29.2555 15.3129 25.4676 13.643C21.6797 11.9726 17.2556 13.6895 15.5847 17.4778C13.9148 21.2647 15.6317 25.6896 19.4196 27.3593Z" fill="#BBE483"/>
<path d="M31.3647 12.8428C33.167 13.6381 35.2754 12.8204 36.0711 11.0169C36.8656 9.21299 36.0482 7.10623 34.245 6.31051C32.4404 5.51548 30.3327 6.33269 29.5379 8.13638C28.7419 9.94008 29.5593 12.0473 31.3647 12.8428Z" fill="#BBE483"/>
<path d="M42.8313 69.9985H0.336487V74.2013H42.8313V69.9985Z" fill="#93C09E"/>
</g>
</svg>
