<svg width="78" height="70" viewBox="0 0 78 70" fill="none" xmlns="http://www.w3.org/2000/svg">
<g opacity="0.75" clip-path="url(#clip0_1427_4088)">
<path d="M6.62077 39.0333C7.97907 38.4328 9.5725 39.0428 10.1763 40.4003L14.7848 50.6835C15.3871 52.0398 14.7806 53.6324 13.4213 54.2385C12.064 54.8415 10.4718 54.2292 9.86602 52.8697L5.25722 42.589C4.65245 41.2287 5.26271 39.6381 6.62077 39.0333Z" fill="#6AA285"/>
<path d="M7.26596 31.3214C8.51894 31.3788 9.49337 32.4451 9.43471 33.7005L9.66558 41.3542C9.60942 42.6111 8.5459 43.5848 7.28918 43.5261C6.03321 43.4662 5.06128 42.4025 5.11919 41.1458L4.88806 33.4921C4.94522 32.2354 6.00975 31.2625 7.26596 31.3214Z" fill="#6AA285"/>
<path d="M14.6055 42.7318C15.3622 41.5635 16.9225 41.2287 18.0933 41.9838L24.2194 45.6823C25.3885 46.4383 25.7227 47.9973 24.9702 49.1659C24.2149 50.3365 22.6542 50.6717 21.4829 49.9155L15.357 46.2164C14.1879 45.4602 13.8502 43.9014 14.6055 42.7318Z" fill="#6AA285"/>
<path d="M11.0232 54.0943L31.3172 63.6524L34.1948 56.3941L24.7553 46.1329C24.022 45.0395 22.4218 44.8216 21.1903 45.6502C19.9555 46.4784 19.1414 46.7432 19.8752 47.8372L20.5239 49.68L13.469 47.9288C11.9033 47.3088 10.1284 48.0741 9.50769 49.6403C8.88569 51.2062 9.45677 53.4741 11.0232 54.0943Z" fill="#6AA285"/>
<path d="M37.6483 69.5909H27.6645V65.954C27.6645 63.7436 26.9631 62.2348 23.4937 60.1227L28.7185 51.5708C32.5436 53.8993 37.6483 57.9238 37.6483 65.954V69.5909Z" fill="#6AA285"/>
<path d="M71.1719 39.0333C69.8136 38.4328 68.2202 39.0428 67.6164 40.4003L63.0079 50.6835C62.4056 52.0398 63.0121 53.6324 64.3714 54.2385C65.7287 54.8415 67.3209 54.2292 67.9264 52.8697L72.5355 42.589C73.1402 41.2287 72.53 39.6381 71.1719 39.0333Z" fill="#6AA285"/>
<path d="M70.5269 31.3214C69.2739 31.3788 68.2995 32.4451 68.3581 33.7005L68.1273 41.3542C68.1834 42.6111 69.2469 43.5848 70.5037 43.5261C71.7594 43.4662 72.7313 42.4025 72.6732 41.1458L72.9045 33.4921C72.8476 32.2354 71.7831 31.2625 70.5269 31.3214Z" fill="#6AA285"/>
<path d="M63.1875 42.7318C62.4305 41.5635 60.8705 41.2287 59.6997 41.9838L53.5736 45.6823C52.4045 46.4383 52.0703 47.9973 52.8228 49.1659C53.5781 50.3365 55.1388 50.6717 56.3102 49.9155L62.436 46.2164C63.6051 45.4602 63.9426 43.9014 63.1875 42.7318Z" fill="#6AA285"/>
<path d="M66.7693 54.0943L46.4754 63.6524L43.5978 56.3941L53.0373 46.1329C53.7708 45.0395 55.3707 44.8216 56.602 45.6502C57.8368 46.4784 58.6512 46.7432 57.9174 47.8372L57.2687 49.68L64.3235 47.9288C65.8892 47.3088 67.6641 48.0741 68.2846 49.6403C68.9069 51.2062 68.3355 53.4741 66.7693 54.0943Z" fill="#6AA285"/>
<path d="M40.394 69.5914H50.3778V65.9545C50.3778 63.7441 50.9542 62.2353 54.4238 60.1232L49.2614 51.5713C45.4363 53.8998 40.394 57.9243 40.394 65.9545V69.5914Z" fill="#6AA285"/>
<path d="M53.5763 31.3247C53.5763 39.432 47.0039 46.0044 38.8966 46.0044C30.7892 46.0044 24.2168 39.432 24.2168 31.3247C24.2168 23.2173 38.8966 1.32666 38.8966 1.32666C38.8966 1.32666 53.5763 23.217 53.5763 31.3247Z" fill="#BBE483"/>
<path d="M46.2822 29.7312C46.9725 32.4091 45.8818 35.0586 43.736 36.8505C42.9483 37.5084 43.0599 38.8345 43.736 39.5107C44.5093 40.2839 45.6102 40.1674 46.3965 39.5107C49.5212 36.9011 50.9257 32.6702 49.91 28.7308C49.3048 26.3831 45.6759 27.38 46.2822 29.7312Z" fill="#F7F7F8"/>
</g>
<defs>
<clipPath id="clip0_1427_4088">
<rect width="78" height="69" fill="white" transform="translate(0 0.5)"/>
</clipPath>
</defs>
</svg>
