<svg width="70" height="71" viewBox="0 0 70 71" fill="none" xmlns="http://www.w3.org/2000/svg">
<g opacity="0.75" clip-path="url(#clip0_1427_4071)">
<path d="M34.6667 33.2005C43.8967 33.2005 51.3792 25.718 51.3792 16.4879C51.3792 7.25786 43.8967 -0.224609 34.6667 -0.224609C25.4366 -0.224609 17.9541 7.25786 17.9541 16.4879C17.9541 25.718 25.4366 33.2005 34.6667 33.2005Z" fill="#79AF85"/>
<path d="M67.953 43.7569C67.953 49.6183 63.2017 54.3699 57.3398 54.3699H11.994C6.1326 54.3699 1.3808 49.6183 1.3808 43.7569V43.1136C1.3808 37.2526 6.1326 32.501 11.994 32.501H57.34C63.2019 32.501 67.9533 37.2526 67.9533 43.1136V43.7569H67.953Z" fill="#79AF85"/>
<path d="M19.0684 41.278C26.8372 41.278 33.1351 34.9801 33.1351 27.2113C33.1351 19.4424 26.8372 13.1445 19.0684 13.1445C11.2995 13.1445 5.00165 19.4424 5.00165 27.2113C5.00165 34.9801 11.2995 41.278 19.0684 41.278Z" fill="#79AF85"/>
<path d="M50.2657 41.2772C58.0343 41.2772 64.3321 34.9795 64.3321 27.2109C64.3321 19.4422 58.0343 13.1445 50.2657 13.1445C42.4971 13.1445 36.1994 19.4422 36.1994 27.2109C36.1994 34.9795 42.4971 41.2772 50.2657 41.2772Z" fill="#79AF85"/>
<path d="M15.7375 13.5454C9.57712 15.0416 5.00162 20.5902 5.00162 27.2109C5.00162 29.6389 5.61711 31.9231 6.69967 33.9163C3.52139 35.7498 1.3808 39.1803 1.3808 43.1128V43.7562C1.3808 49.6176 6.13239 54.3692 11.9938 54.3692H57.3398C58.9215 54.3692 60.421 54.0206 61.7696 53.4C52.0128 51.0976 40.821 44.6121 30.9702 34.7609C24.2294 28.0205 19.0654 20.6525 15.7375 13.5454Z" fill="#AEDE60"/>
<path d="M36.7634 68.5978C36.7634 69.7456 35.8331 70.6759 34.6853 70.6759H34.6489C33.5011 70.6759 32.5707 69.7456 32.5707 68.5978V47.3882C32.5707 46.2404 33.5011 45.3101 34.6489 45.3101H34.6853C35.8331 45.3101 36.7634 46.2404 36.7634 47.3882V68.5978Z" fill="#438763"/>
<path d="M36.3441 58.7307L28.6433 51.0708C28.0215 50.4507 27.0035 50.4517 26.3834 51.0735C25.7633 51.6953 25.7589 52.6508 26.3803 53.2709L32.9457 59.7748H36.3441V58.7307Z" fill="#438763"/>
<path d="M32.9902 58.7307L40.6909 51.0708C41.3125 50.4507 42.3307 50.4517 42.951 51.0735C43.5711 51.6953 43.5755 52.6508 42.9539 53.2709L36.3888 59.7748H32.9902V58.7307Z" fill="#438763"/>
<path d="M48.1556 69.9727C48.1556 70.8483 47.4456 71.5582 46.5702 71.5582H23.5103C22.6346 71.5582 21.9248 70.8483 21.9248 69.9727C21.9248 69.097 22.6346 68.3872 23.5103 68.3872H46.5702C47.4456 68.3872 48.1556 69.097 48.1556 69.9727Z" fill="#AEDE60"/>
</g>
<defs>
<clipPath id="clip0_1427_4071">
<rect width="70" height="71" fill="white"/>
</clipPath>
</defs>
</svg>
