<svg xmlns="http://www.w3.org/2000/svg" xmlns:xlink="http://www.w3.org/1999/xlink" width="250" zoomAndPan="magnify" viewBox="0 0 187.5 48" height="64" preserveAspectRatio="xMidYMid meet" version="1.0"><defs><g/><clipPath id="68fc5ce476"><path d="M 1.667969 0 L 185.34375 0 L 185.34375 47.019531 L 1.667969 47.019531 Z M 1.667969 0 " clip-rule="nonzero"/></clipPath><clipPath id="82e1325f98"><path d="M 88 6.746094 L 111.441406 6.746094 L 111.441406 34 L 88 34 Z M 88 6.746094 " clip-rule="nonzero"/></clipPath><clipPath id="2aafb16ebf"><path d="M 105.480469 19.761719 C 104.230469 22.40625 106.730469 24.464844 107.097656 25.640625 C 107.316406 26.300781 107.242188 26.597656 107.097656 27.332031 C 106.875 28.433594 105.847656 30.710938 104.894531 31.738281 C 104.011719 32.546875 102.984375 33.0625 101.878906 33.355469 C 100.851562 33.574219 99.601562 33.574219 98.574219 33.355469 C 97.472656 33.132812 96.371094 32.546875 95.5625 31.8125 C 94.753906 31.152344 94.167969 30.34375 93.652344 29.09375 C 92.84375 27.109375 91.007812 22.039062 92.109375 20.792969 C 93.136719 19.617188 99.089844 21.746094 99.382812 21.160156 C 99.53125 20.71875 97.621094 19.910156 97.105469 18.957031 C 96.445312 17.78125 96.078125 15.648438 96.296875 14.179688 C 96.515625 12.636719 97.621094 10.800781 98.5 9.84375 C 99.164062 9.109375 99.675781 8.742188 100.558594 8.449219 C 101.808594 7.933594 104.085938 7.714844 105.40625 7.859375 C 106.289062 8.007812 106.949219 8.230469 107.683594 8.742188 C 108.785156 9.476562 110.257812 11.019531 110.84375 12.417969 C 111.429688 13.886719 111.429688 16.015625 111.210938 17.265625 C 110.992188 18.21875 110.769531 18.808594 110.183594 19.542969 C 109.375 20.570312 107.757812 22.039062 106.289062 22.554688 C 104.894531 22.996094 102.910156 23.070312 101.441406 22.554688 C 99.96875 22.113281 98.425781 20.9375 97.546875 19.691406 C 96.664062 18.367188 96.148438 16.53125 96.222656 14.988281 C 96.296875 13.445312 96.957031 11.609375 97.988281 10.433594 C 98.941406 9.257812 100.632812 8.230469 102.101562 7.859375 C 103.570312 7.566406 105.699219 7.933594 106.949219 8.375 C 107.832031 8.667969 108.417969 8.816406 109.007812 9.769531 C 110.402344 11.976562 112.019531 20.9375 110.84375 24.613281 C 109.960938 27.332031 107.539062 29.09375 105.261719 30.636719 C 102.835938 32.253906 99.164062 34.308594 96.515625 33.871094 C 93.945312 33.429688 90.785156 30.34375 89.464844 28.066406 C 88.289062 26.082031 88.363281 23.511719 88.214844 21.234375 C 88.070312 18.882812 87.921875 16.164062 88.65625 13.960938 C 89.316406 11.902344 90.640625 9.699219 92.402344 8.523438 C 94.167969 7.347656 97.253906 6.539062 99.308594 6.980469 C 101.441406 7.492188 103.9375 9.476562 105.113281 11.460938 C 106.363281 13.445312 106.140625 16.382812 106.4375 18.957031 C 106.804688 21.671875 107.390625 25.199219 107.097656 27.332031 C 106.949219 28.652344 106.582031 29.535156 105.996094 30.417969 C 105.332031 31.371094 104.453125 32.179688 103.496094 32.695312 C 102.542969 33.207031 101.441406 33.574219 100.265625 33.574219 C 98.792969 33.503906 96.738281 32.695312 95.5625 31.8125 C 94.679688 31.152344 94.167969 30.34375 93.652344 29.09375 C 92.84375 27.257812 92.257812 24.023438 92.183594 21.378906 C 92.183594 18.660156 92.917969 14.695312 93.652344 13.078125 C 94.019531 12.269531 94.3125 12.050781 94.902344 11.535156 C 95.78125 10.726562 97.472656 9.332031 98.941406 9.035156 C 100.410156 8.742188 102.394531 9.257812 103.644531 9.917969 C 104.597656 10.433594 105.332031 11.242188 105.921875 12.121094 C 106.4375 13.003906 106.875 14.105469 106.875 15.207031 C 106.875 16.53125 105.480469 19.761719 105.480469 19.761719 " clip-rule="nonzero"/></clipPath><clipPath id="d29fbc42ce"><path d="M 90.808594 7.824219 L 108.132812 7.824219 L 108.132812 30.804688 L 90.808594 30.804688 Z M 90.808594 7.824219 " clip-rule="nonzero"/></clipPath><clipPath id="13645666a8"><path d="M 106.214844 16.015625 C 104.304688 20.496094 99.824219 19.542969 97.691406 18.808594 C 96.078125 18.292969 94.09375 17.558594 93.652344 16.457031 C 93.285156 15.574219 94.019531 14.179688 94.535156 13.222656 C 95.046875 12.195312 95.78125 11.242188 96.738281 10.652344 C 97.988281 9.917969 100.191406 9.402344 101.660156 9.476562 C 102.835938 9.550781 103.9375 9.917969 104.820312 10.652344 C 105.996094 11.609375 107.242188 13.003906 107.683594 14.839844 C 108.347656 17.78125 107.316406 24.539062 105.847656 27.183594 C 104.894531 28.875 103.203125 29.828125 101.878906 30.417969 C 100.707031 30.855469 99.53125 30.855469 98.425781 30.636719 C 97.324219 30.488281 96.148438 29.976562 95.269531 29.3125 C 94.3125 28.578125 93.578125 27.84375 93.0625 26.597656 C 92.183594 24.539062 91.960938 19.910156 92.109375 17.632812 C 92.183594 16.164062 92.402344 15.207031 92.917969 14.253906 C 93.503906 13.222656 94.3125 12.269531 95.269531 11.609375 C 96.148438 10.945312 97.398438 10.507812 98.5 10.359375 C 99.601562 10.210938 100.851562 10.285156 101.953125 10.800781 C 103.351562 11.386719 105.113281 12.929688 105.847656 14.179688 C 106.507812 15.28125 106.875 16.382812 106.65625 17.632812 C 106.363281 19.394531 102.394531 23.214844 102.6875 23.511719 C 102.910156 23.730469 105.261719 21.671875 105.480469 21.820312 C 105.699219 21.96875 105.1875 22.921875 104.894531 23.511719 C 104.378906 24.320312 103.570312 25.492188 102.542969 26.082031 C 101.21875 26.890625 98.941406 27.402344 97.472656 27.332031 C 96.296875 27.257812 95.121094 26.742188 94.238281 26.082031 C 93.285156 25.421875 92.402344 24.464844 91.890625 23.4375 C 91.375 22.40625 91.226562 21.378906 91.082031 20.058594 C 90.859375 18.21875 90.566406 15.429688 91.226562 13.519531 C 91.742188 11.828125 92.992188 10.140625 94.167969 9.257812 C 95.121094 8.449219 96.296875 8.082031 97.472656 7.933594 C 98.574219 7.859375 99.824219 7.859375 100.925781 8.375 C 102.320312 8.964844 104.085938 10.578125 104.894531 11.828125 C 105.480469 12.855469 105.628906 13.960938 105.699219 15.28125 C 105.921875 17.042969 105.996094 19.835938 105.332031 21.601562 C 104.820312 23.144531 103.496094 24.613281 102.46875 25.347656 C 101.808594 25.933594 101.074219 26.15625 100.335938 26.375 C 99.601562 26.597656 98.867188 26.742188 97.988281 26.667969 C 96.738281 26.449219 94.679688 25.859375 93.578125 24.90625 C 92.476562 23.949219 91.449219 22.335938 91.152344 20.867188 C 90.859375 19.394531 91.007812 17.484375 91.667969 16.164062 C 92.257812 14.839844 93.800781 13.445312 94.902344 12.710938 C 95.636719 12.269531 96.371094 12.121094 97.179688 11.976562 C 97.914062 11.828125 98.648438 11.753906 99.53125 11.976562 C 100.777344 12.269531 102.761719 13.371094 103.71875 14.179688 C 104.378906 14.765625 104.746094 15.28125 105.039062 16.164062 C 105.480469 17.339844 105.921875 19.394531 105.554688 20.867188 C 105.261719 22.335938 104.304688 23.949219 103.128906 24.90625 C 102.027344 25.859375 100.042969 26.449219 98.722656 26.667969 C 97.839844 26.742188 97.253906 26.667969 96.371094 26.375 C 95.195312 25.933594 93.359375 24.90625 92.476562 23.730469 C 91.59375 22.554688 91.226562 20.867188 91.007812 19.25 C 90.714844 17.484375 90.785156 15.132812 91.226562 13.519531 C 91.519531 12.269531 91.960938 11.3125 92.84375 10.433594 C 93.871094 9.332031 95.855469 8.15625 97.472656 7.933594 C 99.089844 7.789062 101.21875 8.449219 102.542969 9.183594 C 103.570312 9.84375 104.304688 10.800781 104.894531 11.828125 C 105.40625 12.855469 105.554688 13.960938 105.699219 15.28125 C 105.921875 17.117188 105.996094 20.128906 105.480469 21.820312 C 105.1875 23.144531 104.597656 24.097656 103.863281 24.90625 C 103.128906 25.789062 102.101562 26.523438 101 26.890625 C 99.53125 27.332031 97.179688 27.332031 95.78125 26.890625 C 94.605469 26.523438 93.652344 25.714844 92.917969 24.90625 C 92.183594 24.023438 91.519531 22.921875 91.300781 21.820312 C 91.007812 20.570312 90.859375 19.175781 91.375 17.707031 C 91.960938 15.871094 95.5625 11.828125 95.636719 11.828125 C 95.710938 11.902344 92.257812 17.707031 92.109375 17.632812 C 91.960938 17.558594 92.84375 13.960938 93.945312 12.785156 C 94.972656 11.535156 96.882812 10.578125 98.5 10.359375 C 100.117188 10.140625 102.246094 10.800781 103.496094 11.609375 C 104.597656 12.269531 105.261719 12.929688 105.847656 14.179688 C 106.804688 16.308594 107.023438 21.527344 106.804688 23.878906 C 106.65625 25.273438 106.363281 26.230469 105.847656 27.183594 C 105.261719 28.140625 104.453125 29.09375 103.421875 29.679688 C 102.101562 30.34375 99.96875 30.929688 98.425781 30.636719 C 96.8125 30.417969 94.972656 29.167969 94.019531 28.066406 C 93.136719 27.183594 92.695312 26.375 92.550781 24.980469 C 92.183594 22.335938 93.359375 15.574219 94.535156 13.222656 C 95.121094 11.902344 95.78125 11.242188 96.738281 10.652344 C 97.988281 9.917969 100.191406 9.402344 101.660156 9.476562 C 102.835938 9.550781 103.9375 9.917969 104.820312 10.652344 C 105.996094 11.609375 107.242188 13.003906 107.683594 14.839844 C 108.417969 17.484375 108.125 23.070312 106.804688 25.640625 C 105.699219 27.625 103.71875 29.609375 101.660156 29.753906 C 99.015625 30.050781 93.578125 27.332031 92.109375 24.90625 C 90.859375 22.847656 91.890625 19.25 92.183594 16.898438 C 92.476562 14.988281 92.625 13.222656 93.503906 11.828125 C 94.238281 10.507812 95.5625 9.109375 96.882812 8.523438 C 98.28125 7.933594 100.265625 7.859375 101.660156 8.300781 C 103.128906 8.742188 104.671875 10.066406 105.40625 11.3125 C 106.140625 12.636719 106.214844 16.015625 106.214844 16.015625 " clip-rule="nonzero"/></clipPath><clipPath id="4f0db826cf"><path d="M 89.652344 9.628906 L 108.753906 9.628906 L 108.753906 30.933594 L 89.652344 30.933594 Z M 89.652344 9.628906 " clip-rule="nonzero"/></clipPath></defs><g clip-path="url(#68fc5ce476)"><path fill="#ffffff" d="M 1.667969 0 L 185.34375 0 L 185.34375 47.019531 L 1.667969 47.019531 Z M 1.667969 0 " fill-opacity="1" fill-rule="nonzero"/><path fill="#ffffff" d="M 1.667969 0 L 185.34375 0 L 185.34375 47.019531 L 1.667969 47.019531 Z M 1.667969 0 " fill-opacity="1" fill-rule="nonzero"/></g><g fill="#50c878" fill-opacity="1"><g transform="translate(20.253825, 35.314178)"><g><path d="M 9.390625 -8.3125 C 9.390625 -7.476562 9.65625 -6.695312 10.1875 -5.96875 C 10.726562 -5.238281 11.640625 -4.875 12.921875 -4.875 L 19.40625 -4.875 C 20.6875 -4.875 21.59375 -5.191406 22.125 -5.828125 C 22.664062 -6.472656 22.9375 -7.210938 22.9375 -8.046875 L 22.9375 -8.609375 C 22.9375 -10.242188 23.890625 -11.0625 25.796875 -11.0625 C 27.703125 -11.0625 28.65625 -10.242188 28.65625 -8.609375 L 28.65625 -8 C 28.65625 -6.539062 28.421875 -5.34375 27.953125 -4.40625 C 27.484375 -3.476562 26.78125 -2.664062 25.84375 -1.96875 C 24.007812 -0.65625 22.175781 0 20.34375 0 L 11.625 0 C 9.789062 0 8.007812 -0.65625 6.28125 -1.96875 C 5.445312 -2.664062 4.804688 -3.539062 4.359375 -4.59375 C 3.910156 -5.644531 3.6875 -6.863281 3.6875 -8.25 L 3.6875 -23.046875 C 3.6875 -25.847656 4.550781 -27.925781 6.28125 -29.28125 C 7.144531 -29.894531 8.035156 -30.382812 8.953125 -30.75 C 9.867188 -31.113281 10.757812 -31.296875 11.625 -31.296875 L 20.34375 -31.296875 C 21.175781 -31.296875 22.09375 -31.128906 23.09375 -30.796875 C 24.101562 -30.472656 25.039062 -30.035156 25.90625 -29.484375 C 26.726562 -28.890625 27.390625 -28.070312 27.890625 -27.03125 C 28.398438 -26 28.65625 -24.773438 28.65625 -23.359375 L 28.65625 -16.34375 C 28.65625 -15.550781 28.421875 -14.84375 27.953125 -14.21875 C 27.484375 -13.59375 26.625 -13.28125 25.375 -13.28125 L 14.171875 -13.28125 C 12.921875 -13.28125 12.265625 -14.097656 12.203125 -15.734375 C 12.203125 -17.359375 12.859375 -18.171875 14.171875 -18.171875 L 23 -18.171875 L 22.9375 -23 C 22.9375 -23.863281 22.664062 -24.648438 22.125 -25.359375 C 21.59375 -26.066406 20.6875 -26.421875 19.40625 -26.421875 L 12.921875 -26.421875 C 11.640625 -26.421875 10.726562 -26.066406 10.1875 -25.359375 C 9.65625 -24.648438 9.390625 -23.863281 9.390625 -23 Z M 9.390625 -8.3125 "/></g></g></g><g fill="#50c878" fill-opacity="1"><g transform="translate(51.81556, 35.314178)"><g><path d="M 28.65625 -8.25 C 28.65625 -5.414062 27.71875 -3.320312 25.84375 -1.96875 C 24.007812 -0.65625 22.175781 0 20.34375 0 L 11.625 0 C 9.789062 0 8.007812 -0.65625 6.28125 -1.96875 C 5.445312 -2.664062 4.804688 -3.539062 4.359375 -4.59375 C 3.910156 -5.644531 3.6875 -6.863281 3.6875 -8.25 L 3.6875 -23.046875 C 3.6875 -25.847656 4.550781 -27.925781 6.28125 -29.28125 C 7.144531 -29.894531 8.035156 -30.382812 8.953125 -30.75 C 9.867188 -31.113281 10.757812 -31.296875 11.625 -31.296875 L 20.34375 -31.296875 C 21.175781 -31.296875 22.09375 -31.128906 23.09375 -30.796875 C 24.101562 -30.472656 25.039062 -30.035156 25.90625 -29.484375 C 26.726562 -28.890625 27.390625 -28.070312 27.890625 -27.03125 C 28.398438 -26 28.65625 -24.773438 28.65625 -23.359375 L 28.65625 -20.765625 C 28.65625 -19.097656 27.703125 -18.265625 25.796875 -18.265625 C 23.890625 -18.265625 22.9375 -19.097656 22.9375 -20.765625 L 22.9375 -23 C 22.9375 -23.863281 22.664062 -24.648438 22.125 -25.359375 C 21.59375 -26.066406 20.6875 -26.421875 19.40625 -26.421875 L 12.921875 -26.421875 C 11.640625 -26.421875 10.726562 -26.066406 10.1875 -25.359375 C 9.65625 -24.648438 9.390625 -23.863281 9.390625 -23 L 9.390625 -8.3125 C 9.390625 -7.476562 9.65625 -6.695312 10.1875 -5.96875 C 10.726562 -5.238281 11.640625 -4.875 12.921875 -4.875 L 19.40625 -4.875 C 20.6875 -4.875 21.59375 -5.238281 22.125 -5.96875 C 22.664062 -6.695312 22.9375 -7.476562 22.9375 -8.3125 L 22.9375 -10.6875 C 22.9375 -12.3125 23.890625 -13.125 25.796875 -13.125 C 27.703125 -13.125 28.65625 -12.3125 28.65625 -10.6875 Z M 28.65625 -8.25 "/></g></g></g><g fill="#50c878" fill-opacity="1"><g transform="translate(83.273475, 35.314178)"><g><path d="M 20.296875 -31.25 C 21.191406 -31.25 22.113281 -31.054688 23.0625 -30.671875 C 24.019531 -30.296875 24.945312 -29.8125 25.84375 -29.21875 L 25.796875 -29.21875 C 26.691406 -28.5625 27.378906 -27.707031 27.859375 -26.65625 C 28.347656 -25.601562 28.59375 -24.382812 28.59375 -23 L 28.59375 -8.25 C 28.59375 -5.414062 27.660156 -3.320312 25.796875 -1.96875 C 23.960938 -0.65625 22.128906 0 20.296875 0 L 11.984375 0 C 11.085938 0 10.171875 -0.15625 9.234375 -0.46875 C 8.304688 -0.78125 7.390625 -1.28125 6.484375 -1.96875 C 4.617188 -3.28125 3.6875 -5.375 3.6875 -8.25 L 3.6875 -23 C 3.6875 -24.382812 3.925781 -25.601562 4.40625 -26.65625 C 4.894531 -27.707031 5.585938 -28.5625 6.484375 -29.21875 L 6.4375 -29.21875 C 7.300781 -29.8125 8.21875 -30.296875 9.1875 -30.671875 C 10.15625 -31.054688 11.085938 -31.25 11.984375 -31.25 Z M 19.359375 -4.875 C 20.640625 -4.875 21.546875 -5.238281 22.078125 -5.96875 C 22.617188 -6.695312 22.890625 -7.476562 22.890625 -8.3125 L 22.890625 -22.9375 C 22.890625 -23.800781 22.617188 -24.585938 22.078125 -25.296875 C 21.546875 -26.015625 20.640625 -26.375 19.359375 -26.375 L 12.921875 -26.375 C 11.640625 -26.375 10.726562 -26.015625 10.1875 -25.296875 C 9.65625 -24.585938 9.390625 -23.800781 9.390625 -22.9375 L 9.390625 -8.3125 C 9.390625 -7.476562 9.65625 -6.695312 10.1875 -5.96875 C 10.726562 -5.238281 11.640625 -4.875 12.921875 -4.875 Z M 19.359375 -4.875 "/></g></g></g><g fill="#50c878" fill-opacity="1"><g transform="translate(114.73139, 35.314178)"><g><path d="M 12.046875 0 C 11.140625 0 10.164062 -0.101562 9.125 -0.3125 C 8.09375 -0.519531 7.128906 -0.914062 6.234375 -1.5 C 5.265625 -2.09375 4.597656 -2.953125 4.234375 -4.078125 C 3.867188 -5.203125 3.6875 -6.488281 3.6875 -7.9375 L 3.6875 -23.3125 C 3.6875 -24.757812 3.9375 -26 4.4375 -27.03125 C 4.9375 -28.070312 5.617188 -28.890625 6.484375 -29.484375 C 7.390625 -30.035156 8.304688 -30.46875 9.234375 -30.78125 C 10.171875 -31.09375 11.085938 -31.25 11.984375 -31.25 L 20.34375 -31.25 C 21.25 -31.25 22.160156 -31.09375 23.078125 -30.78125 C 23.992188 -30.46875 24.9375 -30.035156 25.90625 -29.484375 C 26.726562 -28.890625 27.390625 -28.066406 27.890625 -27.015625 C 28.398438 -25.960938 28.65625 -24.726562 28.65625 -23.3125 L 28.65625 4.9375 C 28.65625 6.59375 27.703125 7.421875 25.796875 7.421875 C 23.890625 7.421875 22.9375 6.609375 22.9375 4.984375 L 22.9375 -22.9375 C 22.9375 -23.800781 22.664062 -24.585938 22.125 -25.296875 C 21.59375 -26.015625 20.6875 -26.375 19.40625 -26.375 L 12.921875 -26.375 C 11.640625 -26.375 10.726562 -26.015625 10.1875 -25.296875 C 9.65625 -24.585938 9.390625 -23.800781 9.390625 -22.9375 L 9.390625 -8.3125 C 9.390625 -7.476562 9.65625 -6.695312 10.1875 -5.96875 C 10.726562 -5.238281 11.640625 -4.875 12.921875 -4.875 L 18.328125 -4.875 C 19.566406 -4.875 20.1875 -4.0625 20.1875 -2.4375 C 20.1875 -1.75 20.039062 -1.171875 19.75 -0.703125 C 19.457031 -0.234375 18.984375 0 18.328125 0 Z M 12.046875 0 "/></g></g></g><g fill="#50c878" fill-opacity="1"><g transform="translate(146.293126, 35.314178)"><g><path d="M 9.296875 -2.1875 C 9.296875 -0.519531 8.34375 0.3125 6.4375 0.3125 C 4.46875 0.3125 3.484375 -0.519531 3.484375 -2.1875 L 3.484375 -23.671875 C 3.484375 -26.503906 4.328125 -28.476562 6.015625 -29.59375 C 7.710938 -30.695312 9.671875 -31.25 11.890625 -31.25 L 17.796875 -31.25 C 19.078125 -31.25 19.71875 -30.4375 19.71875 -28.8125 C 19.789062 -27.1875 19.148438 -26.375 17.796875 -26.375 L 12.296875 -26.375 C 11.054688 -26.375 10.242188 -26.128906 9.859375 -25.640625 C 9.484375 -25.160156 9.296875 -24.488281 9.296875 -23.625 Z M 9.296875 -2.1875 "/></g></g></g><g clip-path="url(#82e1325f98)"><g clip-path="url(#2aafb16ebf)"><path fill="#50c878" d="M 85.277344 4.039062 L 114.148438 4.039062 L 114.148438 36.863281 L 85.277344 36.863281 Z M 85.277344 4.039062 " fill-opacity="1" fill-rule="nonzero"/></g></g><g clip-path="url(#d29fbc42ce)"><g clip-path="url(#13645666a8)"><path fill="#50c878" d="M 88.070312 4.996094 L 110.695312 4.996094 L 110.695312 33.546875 L 88.070312 33.546875 Z M 88.070312 4.996094 " fill-opacity="1" fill-rule="nonzero"/></g></g><g clip-path="url(#4f0db826cf)"><path fill="#ffffff" d="M 104.980469 9.625 L 103.367188 11.0625 C 105.585938 13.546875 106.949219 16.8125 106.949219 20.398438 C 106.949219 23.984375 105.585938 27.253906 103.367188 29.738281 L 104.980469 31.175781 C 107.539062 28.308594 109.109375 24.539062 109.109375 20.398438 C 109.109375 16.261719 107.539062 12.492188 104.980469 9.625 Z M 101.753906 12.5 L 100.144531 13.933594 C 101.679688 15.65625 102.625 17.917969 102.625 20.398438 C 102.625 22.882812 101.679688 25.144531 100.144531 26.867188 L 101.753906 28.300781 C 103.632812 26.199219 104.785156 23.433594 104.785156 20.398438 C 104.785156 17.363281 103.632812 14.601562 101.753906 12.5 Z M 98.535156 15.371094 L 96.914062 16.820312 C 97.765625 17.773438 98.300781 19.019531 98.300781 20.398438 C 98.300781 20.984375 98.1875 21.539062 98.011719 22.0625 L 92.78125 17.390625 C 92.78125 17.386719 92.78125 17.382812 92.785156 17.382812 L 91.140625 15.921875 C 90.230469 17.171875 89.683594 18.703125 89.683594 20.367188 C 89.683594 22.027344 90.230469 23.558594 91.140625 24.808594 L 92.785156 23.347656 C 92.203125 22.492188 91.84375 21.476562 91.84375 20.367188 C 91.84375 20.078125 91.871094 19.796875 91.917969 19.523438 L 96.910156 23.980469 L 98.535156 25.429688 C 99.730469 24.089844 100.464844 22.332031 100.464844 20.398438 C 100.464844 18.46875 99.730469 16.710938 98.535156 15.371094 Z M 98.535156 15.371094 " fill-opacity="1" fill-rule="nonzero"/></g></svg>