<svg width="37" height="46" viewBox="0 0 37 46" fill="none" xmlns="http://www.w3.org/2000/svg">
    <path d="M30.8426 24.0366C30.8217 20.3747 32.4335 17.6148 35.6883 15.5798C33.8679 12.8951 31.1138 11.4185 27.4835 11.1339C24.0461 10.8547 20.2854 13.1957 18.9083 13.1957C17.4531 13.1957 14.1253 11.2305 11.5068 11.2305C6.10303 11.3164 0.360199 15.6657 0.360199 24.5145C0.360199 27.1294 0.824424 29.8302 1.75287 32.6116C2.99429 36.2735 7.46962 45.2458 12.138 45.1009C14.5791 45.0418 16.3056 43.3182 19.4821 43.3182C22.5648 43.3182 24.1609 45.1009 26.8836 45.1009C31.5937 45.0311 35.6413 36.8749 36.8201 33.2022C30.5035 30.1363 30.8426 24.2245 30.8426 24.0366ZM25.3606 7.65986C28.0051 4.42747 27.7651 1.48502 27.6869 0.427246C25.3501 0.566851 22.6482 2.06492 21.1095 3.90663C19.4143 5.88258 18.418 8.32567 18.6319 11.0802C21.1564 11.2789 23.4619 9.94187 25.3606 7.65986Z" fill="url(#paint0_linear_661_8741)"></path>
    <defs>
    <linearGradient id="paint0_linear_661_8741" x1="6.94687" y1="46.8944" x2="29.2928" y2="16.2977" gradientUnits="userSpaceOnUse">
    <stop stop-color="#AC39FF"></stop>
    <stop offset="1" stop-color="#C576FF"></stop>
    </linearGradient>
    </defs>
</svg>