<svg width="37" height="44" viewBox="0 0 37 44" fill="none" xmlns="http://www.w3.org/2000/svg">
  <path d="M6.89766 32.9124C6.89766 34.0201 7.79648 34.9242 8.90235 34.9242H11.1941V40.6235C11.1941 42.0673 12.347 43.246 13.7635 43.246C15.1847 43.246 16.3329 42.072 16.3329 40.6235V34.9195H20.3329V40.6188C20.3329 42.0625 21.4858 43.2412 22.9023 43.2412C24.3235 43.2412 25.4717 42.0673 25.4717 40.6188V34.9195H27.7635C28.8693 34.9195 29.7681 34.0153 29.7681 32.9077V14.2003H6.89766V32.9124ZM23.7023 4.50577L25.8152 1.42889C25.9376 1.24902 25.9093 1.0076 25.7446 0.889258C25.5799 0.77565 25.3446 0.832454 25.2223 1.01233L23.0294 4.21228C21.5847 3.63951 19.9752 3.32235 18.2858 3.32235C16.5964 3.32235 14.987 3.63951 13.5423 4.21228L11.3494 1.01707C11.2271 0.837188 10.9918 0.77565 10.8271 0.893992C10.6623 1.0076 10.6341 1.24428 10.7565 1.43363L12.8694 4.5105C9.50941 6.08207 7.15648 9.05954 6.8553 12.5388H29.7258C29.4152 9.0548 27.0576 6.07734 23.7023 4.50577ZM13.4576 9.35776C13.2073 9.35776 12.9625 9.28308 12.7543 9.14316C12.5462 9.00324 12.3839 8.80437 12.2881 8.5717C12.1923 8.33902 12.1672 8.08299 12.2161 7.83599C12.2649 7.58898 12.3855 7.36209 12.5625 7.18401C12.7396 7.00593 12.9651 6.88465 13.2107 6.83552C13.4562 6.78639 13.7108 6.8116 13.9421 6.90798C14.1734 7.00436 14.3711 7.16757 14.5102 7.37697C14.6493 7.58637 14.7235 7.83256 14.7235 8.0844C14.7226 8.42185 14.589 8.74522 14.3518 8.98383C14.1146 9.22244 13.7931 9.35688 13.4576 9.35776ZM23.2646 9.35776C23.0143 9.35776 22.7695 9.28308 22.5614 9.14316C22.3532 9.00324 22.1909 8.80437 22.0951 8.5717C21.9993 8.33902 21.9742 8.08299 22.0231 7.83599C22.0719 7.58898 22.1925 7.36209 22.3695 7.18401C22.5466 7.00593 22.7721 6.88465 23.0177 6.83552C23.2632 6.78639 23.5178 6.8116 23.7491 6.90798C23.9804 7.00436 24.1781 7.16757 24.3172 7.37697C24.4563 7.58637 24.5305 7.83256 24.5305 8.0844C24.5297 8.42185 24.396 8.74522 24.1588 8.98383C23.9216 9.22244 23.6001 9.35688 23.2646 9.35776ZM33.7775 14.1245C32.3564 14.1245 31.2081 15.2985 31.2081 16.747V26.9906C31.2081 28.4344 32.3611 29.613 33.7775 29.613C35.1987 29.613 36.3469 28.4391 36.3469 26.9906V16.7423C36.3517 15.2938 35.2034 14.1245 33.7775 14.1245ZM2.78473 14.1245C1.36356 14.1245 0.215332 15.2985 0.215332 16.747V26.9906C0.215332 28.4344 1.36827 29.613 2.78473 29.613C4.2059 29.613 5.35413 28.4391 5.35413 26.9906V16.7423C5.35413 15.2938 4.2012 14.1245 2.78473 14.1245Z" fill="url(#paint0_linear_1222_33093)"></path>
  <defs>
  <linearGradient id="paint0_linear_1222_33093" x1="9.36361" y1="37.574" x2="28.6155" y2="17.9784" gradientUnits="userSpaceOnUse">
  <stop stop-color="#AC39FF"></stop>
  <stop offset="1" stop-color="#CF8DFF"></stop>
  </linearGradient>
  </defs>
</svg>