<svg width="45" height="45" viewBox="0 0 45 45" fill="none" xmlns="http://www.w3.org/2000/svg">
    <path d="M22.689 44.7732C34.8355 44.7732 44.6821 34.9266 44.6821 22.7801C44.6821 10.6336 34.8355 0.786903 22.689 0.786903C10.5425 0.786903 0.695801 10.6336 0.695801 22.7801C0.695801 34.9266 10.5425 44.7732 22.689 44.7732ZM22.689 3.92878C24.3102 3.92878 26.2754 5.41803 27.928 8.99821C28.514 10.2707 29.0246 11.7364 29.4362 13.3544H15.9418C16.3534 11.7364 16.8639 10.2691 17.4499 8.99821C19.1025 5.41803 21.0678 3.92878 22.689 3.92878ZM14.5986 7.68176C13.8289 9.34696 13.1911 11.2604 12.7119 13.3544H6.35904C8.53397 9.5947 11.9366 6.69801 15.9952 5.15097C15.4656 5.95731 14.9982 6.80283 14.5971 7.68019L14.5986 7.68176ZM12.1291 16.4963C11.8351 18.5779 11.6892 20.6778 11.6924 22.7801C11.6924 24.9574 11.8448 27.0687 12.1307 29.0638H4.91063C4.19826 27.0455 3.83541 24.9204 3.83768 22.7801C3.83768 20.5776 4.21471 18.4615 4.91063 16.4963H12.1307H12.1291ZM12.7104 32.2057C13.1895 34.2998 13.8273 36.2132 14.5955 37.8784C15.0086 38.7738 15.4752 39.6253 15.9936 40.4076C11.9359 38.8605 8.53395 35.9645 6.35904 32.2057H12.7135H12.7104ZM15.9418 32.2057H29.433C29.0642 33.7007 28.5594 35.1589 27.9249 36.5619C26.277 40.1421 24.3117 41.6313 22.689 41.6313C21.0662 41.6313 19.1025 40.1421 17.4499 36.5619C16.8154 35.1589 16.3106 33.7007 15.9418 32.2057ZM30.0692 29.0638H15.3055C14.9876 26.9844 14.8301 24.8836 14.8343 22.7801C14.8343 20.5698 15.0024 18.4568 15.3055 16.4963H30.0724C30.3756 18.4568 30.5437 20.5698 30.5437 22.7801C30.5437 24.9904 30.3756 27.1033 30.0724 29.0638H30.0692ZM32.6644 32.2057H39.0173C36.842 35.9648 33.4395 38.8608 29.3812 40.4076C29.8996 39.6253 30.3661 38.7738 30.7793 37.8784C31.5475 36.2132 32.1853 34.2998 32.6644 32.2057ZM40.4657 29.0638H33.2457C33.5316 27.0687 33.684 24.9574 33.684 22.7801C33.684 20.6027 33.5316 18.4914 33.2457 16.4963H40.4657C41.1786 18.5145 41.542 20.6396 41.5402 22.7801C41.5402 24.9825 41.1632 27.0986 40.4673 29.0638H40.4657ZM29.3827 5.15097C33.4414 6.69801 36.844 9.5947 39.0189 13.3544H32.6644C32.1853 11.2604 31.5475 9.34696 30.7793 7.68176C30.3782 6.8044 29.9108 5.95888 29.3812 5.15255L29.3827 5.15097Z" fill="url(#paint0_linear_1222_33109)"></path>
    <defs>
    <linearGradient id="paint0_linear_1222_33109" x1="5.13994" y1="35.05" x2="40.8831" y2="8.71295" gradientUnits="userSpaceOnUse">
    <stop stop-color="#FF0255"></stop>
    <stop offset="1" stop-color="#FC9ABA"></stop>
    </linearGradient>
    </defs>
</svg>