<svg width="71" height="34" viewBox="0 0 71 34" fill="none" xmlns="http://www.w3.org/2000/svg">
    <path d="M53.5512 0.169006C47.7828 0.169006 43.1831 3.0036 40.3406 5.38256L40.2404 5.46679L38.6215 7.18853L42.1951 12.9337L44.8401 10.3393C47.6078 8.05286 50.6974 6.79641 53.5512 6.79641C59.3097 6.79641 63.9955 11.2561 63.9955 16.7375C63.9955 22.2189 59.3097 26.6786 53.5512 26.6786C44.8006 26.6786 38.853 15.3637 38.7937 15.2491C38.4493 14.5684 30.9068 0.169006 17.9841 0.169006C8.48968 0.169006 0.765137 7.60136 0.765137 16.7375C0.765137 25.8737 8.48968 33.306 17.9841 33.306C22.6347 33.306 27.2118 31.4959 31.2216 28.0704L31.3077 27.9958L32.9138 26.2865L29.3388 20.5414L26.6811 23.1481C23.912 25.4912 20.9847 26.6786 17.9841 26.6786C12.2256 26.6786 7.53982 22.2189 7.53982 16.7375C7.53982 11.2561 12.2256 6.79641 17.9841 6.79641C26.7347 6.79641 32.6823 18.1113 32.7416 18.2259C33.086 18.9066 40.6285 33.306 53.5512 33.306C63.0456 33.306 70.7702 25.8737 70.7702 16.7375C70.7702 7.60136 63.0456 0.169006 53.5512 0.169006Z" fill="url(#paint0_linear_1222_33104)"></path>
    <defs>
    <linearGradient id="paint0_linear_1222_33104" x1="12.4366" y1="28.0539" x2="68.0492" y2="9.25533" gradientUnits="userSpaceOnUse">
    <stop stop-color="#FF9F0F"></stop>
    <stop offset="1" stop-color="#FFCC80"></stop>
    </linearGradient>
    </defs>
</svg>