<svg fill="none" height="80" viewBox="0 0 80 80" width="80" xmlns="http://www.w3.org/2000/svg"><path d="m70 0h-60c-5.52285 0-10 4.47715-10 10v60c0 5.5229 4.47715 10 10 10h60c5.5229 0 10-4.4771 10-10v-60c0-5.52285-4.4771-10-10-10z" fill="#f8f8f8"/><path d="m20 20h13c.7956 0 1.5587.3161 2.1213.8787s.8787 1.3257.8787 2.1213v13c0 .7956-.3161 1.5587-.8787 2.1213s-1.3257.8787-2.1213.8787h-13c-.7956 0-1.5587-.3161-2.1213-.8787s-.8787-1.3257-.8787-2.1213v-13c0-.7956.3161-1.5587.8787-2.1213s1.3257-.8787 2.1213-.8787z" fill="#a5a9fb"/><path d="m45 46h13c.7956 0 1.5587.3161 2.1213.8787s.8787 1.3257.8787 2.1213v13c0 .7956-.3161 1.5587-.8787 2.1213s-1.3257.8787-2.1213.8787h-13c-.7956 0-1.5587-.3161-2.1213-.8787s-.8787-1.3257-.8787-2.1213v-13c0-.7956.3161-1.5587.8787-2.1213s1.3257-.8787 2.1213-.8787z" fill="#f7e68b"/><path d="m20 46h13c.7956 0 1.5587.3161 2.1213.8787s.8787 1.3257.8787 2.1213v13c0 .7956-.3161 1.5587-.8787 2.1213s-1.3257.8787-2.1213.8787h-13c-.7956 0-1.5587-.3161-2.1213-.8787s-.8787-1.3257-.8787-2.1213v-13c0-.7956.3161-1.5587.8787-2.1213s1.3257-.8787 2.1213-.8787z" fill="#f6b18a"/><path d="m43 18h17c.7956 0 1.5587.3161 2.1213.8787s.8787 1.3257.8787 2.1213v17c0 .7956-.3161 1.5587-.8787 2.1213s-1.3257.8787-2.1213.8787h-17c-.7956 0-1.5587-.3161-2.1213-.8787s-.8787-1.3257-.8787-2.1213v-17c0-.7956.3161-1.5587.8787-2.1213s1.3257-.8787 2.1213-.8787z" fill="#fff"/><path d="m60 41h-17c-.7956 0-1.5587-.3161-2.1213-.8787s-.8787-1.3257-.8787-2.1213v-17c0-.7956.3161-1.5587.8787-2.1213s1.3257-.8787 2.1213-.8787h17c.7956 0 1.5587.3161 2.1213.8787s.8787 1.3257.8787 2.1213v17c0 .7956-.3161 1.5587-.8787 2.1213s-1.3257.8787-2.1213.8787zm-17-21c-.2652 0-.5196.1054-.7071.2929s-.2929.4419-.2929.7071v17c0 .2652.1054.5196.2929.7071s.4419.2929.7071.2929h17c.2652 0 .5196-.1054.7071-.2929s.2929-.4419.2929-.7071v-17c0-.2652-.1054-.5196-.2929-.7071s-.4419-.2929-.7071-.2929z" fill="#20201d"/><path d="m45 20h13c.7956 0 1.5587.3161 2.1213.8787s.8787 1.3257.8787 2.1213v13c0 .7956-.3161 1.5587-.8787 2.1213s-1.3257.8787-2.1213.8787h-13c-.7956 0-1.5587-.3161-2.1213-.8787s-.8787-1.3257-.8787-2.1213v-13c0-.7956.3161-1.5587.8787-2.1213s1.3257-.8787 2.1213-.8787z" fill="#e89296"/><path d="m58 39h-13c-.7956 0-1.5587-.3161-2.1213-.8787s-.8787-1.3257-.8787-2.1213v-13c0-.7956.3161-1.5587.8787-2.1213s1.3257-.8787 2.1213-.8787h13c.7956 0 1.5587.3161 2.1213.8787s.8787 1.3257.8787 2.1213v13c0 .7956-.3161 1.5587-.8787 2.1213s-1.3257.8787-2.1213.8787zm-13-17c-.2652 0-.5196.1054-.7071.2929s-.2929.4419-.2929.7071v13c0 .2652.1054.5196.2929.7071s.4419.2929.7071.2929h13c.2652 0 .5196-.1054.7071-.2929s.2929-.4419.2929-.7071v-13c0-.2652-.1054-.5196-.2929-.7071s-.4419-.2929-.7071-.2929z" fill="#fff"/><path d="m63 8c1.78 0 3.5201.52784 5.0001 1.51677 1.4801.98893 2.6336 2.39453 3.3148 4.03903.6812 1.6446.8594 3.4542.5122 5.2-.3473 1.7458-1.2045 3.3495-2.4631 4.6082-1.2587 1.2586-2.8624 2.1158-4.6082 2.4631-1.7458.3472-3.5554.169-5.2-.5122-1.6445-.6812-3.0501-1.8347-4.039-3.3148-.9889-1.48-1.5168-3.2201-1.5168-5.0001 0-2.3869.9482-4.6761 2.636-6.364 1.6879-1.68779 3.9771-2.636 6.364-2.636z" fill="#20201d"/><path d="m63 28c-2.1756 0-4.3023-.6451-6.1113-1.8538-1.8089-1.2087-3.2188-2.9267-4.0514-4.9367-.8325-2.01-1.0504-4.2217-.6259-6.3555.4244-2.1338 1.4721-4.0938 3.0104-5.63217 1.5384-1.53838 3.4984-2.58603 5.6322-3.01046 2.1338-.42444 4.3455-.2066 6.3555.62596s3.728 2.24246 4.9367 4.05137c1.2087 1.809 1.8538 3.9357 1.8538 6.1113-.0034 2.9163-1.1635 5.7122-3.2256 7.7744-2.0622 2.0621-4.8581 3.2222-7.7744 3.2256zm0-19.99999c-1.78 0-3.5201.52784-5.0001 1.51677-1.4801.98892-2.6336 2.39452-3.3148 4.03912-.6812 1.6445-.8594 3.4541-.5122 5.1999.3473 1.7458 1.2045 3.3495 2.4632 4.6082 1.2586 1.2586 2.8623 2.1158 4.6081 2.4631 1.7458.3472 3.5554.169 5.2-.5122 1.6445-.6812 3.0501-1.8347 4.039-3.3148.989-1.48 1.5168-3.2201 1.5168-5.0001-.0029-2.3861-.952-4.6735-2.6392-6.3607-1.6872-1.68724-3.9747-2.63638-6.3608-2.63929z" fill="#f8f8f8"/><g fill="#fff"><path d="m65.9675 16.2729-2.9 2.9c-.1927.1926-.4539.3007-.7263.3006s-.5336-.1084-.7262-.3011c-.1925-.1926-.3006-.4539-.3005-.7263 0-.2724.1083-.5336.301-.7262l2.9-2.9c.0945-.099.2079-.1781.3334-.2327s.2607-.0836.3976-.0852.2727.0242.3995.0758c.1267.0517.2419.1282.3387.225s.1732.2119.2249.3387c.0516.1268.0774.2626.0758.3995-.0016.1368-.0305.272-.0851.3976-.0546.1255-.1338.2388-.2328.3333"/><path d="m61.611 19.179-1.578-1.579c-.1926-.1927-.3007-.454-.3006-.7264s.1084-.5336.3011-.7261c.1927-.1926.454-.3007.7264-.3006s.5335.1084.7261.3011l1.577 1.578c.1852.194.2871.4528.284.721-.0032.2682-.1111.5246-.3008.7142-.1897.1897-.446.2976-.7142.3007-.2682.0032-.527-.0987-.721-.2839"/></g></svg>