<svg enable-background="new 0 0 93 80" viewBox="0 0 93 80" xmlns="http://www.w3.org/2000/svg"><path d="m69.9 0h-59.8c-5.6 0-10.1 4.5-10.1 10v60c0 5.5 4.5 10 10.1 10h59.9c5.5 0 10-4.5 10-10v-60c0-5.5-4.5-10-10.1-10z" fill="#f8f8f8"/><path d="m31 36.5h-14c-.8 0-1.6-.3-2.1-.9s-.9-1.3-.9-2.1v-14c0-.8.3-1.6.9-2.1.6-.6 1.3-.9 2.1-.9h14c.8 0 1.6.3 2.1.9.6.6.9 1.3.9 2.1v14c0 .8-.3 1.6-.9 2.1s-1.3.9-2.1.9zm-14-18c-.3 0-.5.1-.7.3s-.3.4-.3.7v14c0 .3.1.5.3.7s.4.3.7.3h14c.3 0 .5-.1.7-.3s.3-.4.3-.7v-14c0-.3-.1-.5-.3-.7s-.4-.3-.7-.3z" fill="#20201d"/><path d="m31 67.5h-14c-.8 0-1.6-.3-2.1-.9s-.9-1.3-.9-2.1v-14c0-.8.3-1.6.9-2.1s1.3-.9 2.1-.9h14c.8 0 1.6.3 2.1.9s.9 1.3.9 2.1v14c0 .8-.3 1.6-.9 2.1s-1.3.9-2.1.9zm-14-18c-.3 0-.5.1-.7.3s-.3.4-.3.7v14c0 .3.1.5.3.7s.4.3.7.3h14c.3 0 .5-.1.7-.3s.3-.4.3-.7v-14c0-.3-.1-.5-.3-.7s-.4-.3-.7-.3z" fill="#20201d"/><path d="m44.8 13.5h19c.8 0 1.6.3 2.1.9s.9 1.3.9 2.1v19c0 .8-.3 1.6-.9 2.1s-1.3.9-2.1.9h-19c-.8 0-1.6-.3-2.1-.9s-.9-1.3-.9-2.1v-19c0-.8.3-1.6.9-2.1s1.3-.9 2.1-.9z" fill="#5482db"/><path d="m61.8 67.5h-14c-.8 0-1.6-.3-2.1-.9-.6-.6-.9-1.3-.9-2.1v-14c0-.8.3-1.6.9-2.1.6-.6 1.3-.9 2.1-.9h14c.8 0 1.6.3 2.1.9.6.6.9 1.3.9 2.1v14c0 .8-.3 1.6-.9 2.1-.6.6-1.3.9-2.1.9zm-14-18c-.3 0-.5.1-.7.3s-.3.4-.3.7v14c0 .3.1.5.3.7s.4.3.7.3h14c.3 0 .5-.1.7-.3s.3-.4.3-.7v-14c0-.3-.1-.5-.3-.7s-.4-.3-.7-.3z" fill="#20201d"/><path d="m77.8 28.8c-.3.3-.6.7-.8 1.1-.8-.5-1.8-.7-2.8-.4-.9.2-1.8.8-2.3 1.6-.1.1-.1.2-.2.3-.7-.6-1.7-.7-2.7-.4-.9.3-1.7.9-2.2 1.7l-2.6-2.9c-.7-.7-1.6-1.1-2.5-1.2-1 0-1.9.3-2.6.9s-1.2 1.6-1.2 2.5c-.1 1 .3 1.9.9 2.6l10.6 11.8-2.5-.6h-.1c-1.1-.2-2.2.1-3.1.7s-1.6 1.6-1.8 2.7 0 2.2.6 3.2c.6.9 1.5 1.6 2.6 1.9l11.5 3.2c1.4.3 2.8.3 4.2 0 1.4-.4 2.7-1 3.7-2l5.3-4.8c1.8-1.7 3-4 3.1-6.5s-.7-4.9-2.4-6.8l-7.5-8.4c-.7-.7-1.6-1.2-2.5-1.2-1 0-2 .3-2.7 1" fill="#fff"/><path d="m77.8 28.8c-.3.3-.6.7-.8 1.1-.4-.3-.9-.4-1.3-.5-.5-.1-1-.1-1.4.1-.5.1-.9.3-1.3.6s-.7.6-1 1c-.1.1-.1.2-.2.3-.4-.2-.9-.4-1.4-.4-.5-.1-1 0-1.4.1-.5.1-.9.3-1.3.6s-.7.7-.9 1.1l-2.6-2.9c-.3-.4-.7-.7-1.1-.9s-.9-.3-1.4-.4c-.5 0-1 0-1.4.2-.5.2-.9.4-1.2.7-.4.3-.7.7-.9 1.1s-.3.9-.4 1.4c0 .5 0 1 .2 1.4.2.5.4.9.7 1.2l10.6 11.8-2.5-.6h-.1c-1.1-.2-2.2.1-3.1.7s-1.6 1.6-1.8 2.7 0 2.2.6 3.2c.6.9 1.5 1.6 2.6 1.9l11.5 3.2c1.4.3 2.8.3 4.2 0 1.4-.4 2.7-1 3.7-2l5.3-4.8c1.8-1.7 3-4 3.1-6.5s-.7-4.9-2.4-6.8l-7.4-8.4c-.7-.7-1.6-1.2-2.5-1.2-1 0-2 .3-2.7 1zm10.9 10.4c1.2 1.4 1.8 3.1 1.7 5-.1 1.8-.9 3.5-2.3 4.7l-5.3 4.8c-.8.7-1.7 1.2-2.7 1.4-1 .3-2 .3-3 0l-11.5-3.2c-.5-.1-.8-.4-1.1-.8s-.3-.9-.3-1.3c.1-.5.3-.9.7-1.1.4-.3.8-.4 1.3-.3l10.3 2.6-15.9-18c-.1-.1-.2-.2-.2-.4-.1-.1-.1-.3-.1-.4 0-.2 0-.3.1-.4s.2-.3.3-.4.2-.2.4-.2c.1-.1.3-.1.4-.1.2 0 .3 0 .4.1s.3.2.4.3l8.4 9.3 1.9-1.7-3.4-3.8c-.2-.1-.2-.3-.3-.4s-.1-.3-.1-.4c0-.2 0-.3.1-.4s.2-.3.3-.4.2-.2.4-.2c.1-.1.3-.1.4-.1.2 0 .3 0 .4.1s.3.2.4.3l3.4 3.8 1.9-1.7-1.9-2.2c-.1-.1-.2-.2-.2-.4-.1-.1-.1-.3-.1-.4 0-.2 0-.3.1-.4s.2-.3.3-.4.2-.2.4-.2c.1-.1.3-.1.4-.1.2 0 .3 0 .4.1s.3.2.4.3l1.9 2.2 1.9-1.7-.4-.4c-.2-.2-.3-.5-.3-.8s.2-.6.4-.8.5-.3.8-.3.6.2.8.4z"/><path d="m55.9 24-1.9 1.7 2.3 2.6 1.9-1.7z"/><path d="m59.8 22.5v3.5h2.5v-3.5z"/><path d="m66.2 24-2.3 2.5 1.8 1.7 2.3-2.5z"/><path d="m52.1 29.5-.3 2.5 3.4.3.2-2.5z"/><path d="m55.7 34-2.8 2 1.5 2 2.8-2.1z"/></svg>