<svg enable-background="new 0 0 93 83" viewBox="0 0 93 83" xmlns="http://www.w3.org/2000/svg"><path d="m70 0h-60c-5.5 0-10 4.5-10 10v60c0 5.5 4.5 10 10 10h60c5.5 0 10-4.5 10-10v-60c0-5.5-4.5-10-10-10z" fill="#f8f8f8"/><g fill="#20201d"><path d="m34 38h-13c-.8 0-1.6-.3-2.1-.9-.6-.5-.9-1.3-.9-2.1v-13c0-.8.3-1.6.9-2.1.6-.6 1.3-.9 2.1-.9h13c.8 0 1.6.3 2.1.9.6.6.9 1.3.9 2.1v13c0 .8-.3 1.6-.9 2.1s-1.3.9-2.1.9zm-13-16v13h13v-13z"/><path d="m30 26h-5v5h5z"/><path d="m54 26h-5v5h5z"/><path d="m30 50h-5v5h5z"/><path d="m58 38h-13c-.8 0-1.6-.3-2.1-.9s-.9-1.3-.9-2.1v-13c0-.8.3-1.6.9-2.1.6-.6 1.3-.9 2.1-.9h13c.8 0 1.6.3 2.1.9.6.6.9 1.3.9 2.1v13c0 .8-.3 1.6-.9 2.1s-1.3.9-2.1.9zm-13-16v13h13v-13z"/><path d="m34 62h-13c-.8 0-1.6-.3-2.1-.9-.6-.5-.9-1.3-.9-2.1v-13c0-.8.3-1.6.9-2.1.6-.6 1.3-.9 2.1-.9h13c.8 0 1.6.3 2.1.9s.9 1.3.9 2.1v13c0 .8-.3 1.6-.9 2.1s-1.3.9-2.1.9zm-13-16v13h13v-13z"/><path d="m48 44h-4v4h4z"/><path d="m52 48h-4v4h4z"/><path d="m48 52h-4v4h4z"/><path d="m56 44h-4v4h4z"/><path d="m60 48h-4v4h4z"/><path d="m57 57h-4v4h4z"/></g><path d="m79 51c3.6 0 7 1.1 10 3 3 2 5.3 4.8 6.6 8.1 1.4 3.3 1.7 6.9 1 10.4s-2.4 6.7-4.9 9.2-5.7 4.2-9.2 4.9-7.1.3-10.4-1-6.1-3.6-8.1-6.6-3-6.4-3-10c0-4.8 1.9-9.4 5.3-12.7 3.3-3.4 7.9-5.3 12.7-5.3z" fill="#fff"/><path d="m79 83c-2.8 0-5.5-.8-7.8-2.4-2.3-1.5-4.1-3.7-5.2-6.3s-1.3-5.4-.8-8.1 1.9-5.2 3.8-7.2c2-2 4.5-3.3 7.2-3.8s5.5-.3 8.1.8 4.7 2.9 6.3 5.2 2.4 5 2.4 7.8c0 3.7-1.5 7.3-4.1 9.9s-6.2 4.1-9.9 4.1z" fill="#5482db"/><path d="m85.1 73.6c0 .2-.1.4-.2.6s-.4.2-.6.2h-11.4c-.1 0-.2 0-.3-.1-.1 0-.2-.1-.3-.2s-.1-.2-.2-.3c0-.1-.1-.2-.1-.3s0-.2.1-.3.1-.2.2-.3.2-.1.3-.2c.1 0 .2-.1.3-.1h11.3c.2 0 .4.1.6.2.2.4.3.6.3.8zm-7.1-2.6c.2.2.4.2.6.2s.4-.1.6-.2l2.9-2.9c.1-.2.2-.4.2-.6s-.1-.4-.2-.6c-.1-.1-.4-.2-.6-.2s-.4.1-.6.2l-1.5 1.5v-6.2c0-.2-.1-.4-.2-.6-.2-.1-.4-.2-.6-.2s-.4.1-.6.2-.2.3-.2.6v6.2l-1.5-1.4c-.1-.1-.2-.1-.3-.2-.1 0-.2-.1-.3-.1s-.2 0-.3.1c-.1 0-.2.1-.3.2s-.1.2-.2.3c0 .1-.1.2-.1.3s0 .2.1.3c0 .1.1.2.2.3z" fill="#fff"/></svg>